# xmcd
#
# Track frame offsets:
#	150
#	15447
#	35150
#	57747
#	77120
#	91632
#	110135
#	124587
#	145632
#	163977
#	182832
#	207025
#	235162
#
# Disc length: 4464 seconds
#
# Revision: 1
# Processed by: cddbd v1.4PL0 Copyright (c) Steve Scherf et al.
# Submitted via: audiograbber 1.81.02
#
DISCID=ae116e0d
DTITLE=Angelle, Lisa - Lisa Angelle
DYEAR=2001
DGENRE=Country
TTITLE0=4, 3, 2, 1
TTITLE1=A Woman Gets Lonely
TTITLE2=Kiss This
TTITLE3=I Didn't Want to Know
TTITLE4=I Wear Your Love
TTITLE5=Sin
TTITLE6=Twisted
TTITLE7=Daddy's Gun
TTITLE8=Midnight Rodeo
TTITLE9=I Don't Know Why
TTITLE10=Sparrow
TTITLE11=I Will Love You
TTITLE12=Data Track
EXTD=
EXTT0=
EXTT1=
EXTT2=
EXTT3=
EXTT4=
EXTT5=
EXTT6=
EXTT7=
EXTT8=
EXTT9=
EXTT10=
EXTT11=
EXTT12=
PLAYORDER=
